{
	"asset":{
		"generator":"Khronos glTF Blender I/O v4.4.56",
		"version":"2.0"
	},
	"scene":0,
	"scenes":[
		{
			"name":"Scene",
			"nodes":[
				0,
				1,
				2,
				3,
				4,
				5,
				6,
				7,
				8,
				9,
				10,
				11,
				12,
				13,
				14
			]
		}
	],
	"nodes":[
		{
			"mesh":0,
			"name":"Boat Hull",
			"translation":[
				0,
				2.0948591232299805,
				0
			]
		},
		{
			"mesh":1,
			"name":"Cylinder",
			"scale":[
				1,
				1.2521120309829712,
				1
			],
			"translation":[
				0,
				3.9257705211639404,
				0
			]
		},
		{
			"mesh":2,
			"name":"Plane.001",
			"translation":[
				0,
				3.229158639907837,
				0.09223227947950363
			]
		},
		{
			"mesh":3,
			"name":"Cylinder.001",
			"rotation":[
				0,
				0,
				-0.7071066498756409,
				0.70710688829422
			],
			"scale":[
				1,
				0.4131975471973419,
				1
			],
			"translation":[
				0,
				6.031586647033691,
				0.09365157037973404
			]
		},
		{
			"mesh":4,
			"name":"Cylinder.002",
			"scale":[
				0.8512756824493408,
				0.8512756824493408,
				0.8512756824493408
			],
			"translation":[
				0,
				4.410750865936279,
				0
			]
		},
		{
			"mesh":5,
			"name":"Cylinder.004",
			"rotation":[
				0,
				0,
				-0.7071066498756409,
				0.70710688829422
			],
			"scale":[
				1,
				0.5833228826522827,
				1
			],
			"translation":[
				0,
				4.144902229309082,
				0.09223227947950363
			]
		},
		{
			"mesh":6,
			"name":"Cylinder.005",
			"rotation":[
				0,
				0,
				-0.7071066498756409,
				0.70710688829422
			],
			"scale":[
				0.574882984161377,
				0.5670055150985718,
				0.574882984161377
			],
			"translation":[
				0,
				4.654398441314697,
				0.09846092760562897
			]
		},
		{
			"mesh":7,
			"name":"Cylinder.006",
			"rotation":[
				0,
				0,
				-0.7071066498756409,
				0.70710688829422
			],
			"scale":[
				0.574882984161377,
				0.7726407647132874,
				0.574882984161377
			],
			"translation":[
				0,
				2.663118839263916,
				0.09846092760562897
			]
		},
		{
			"mesh":8,
			"name":"Plane.002",
			"scale":[
				0.7057387232780457,
				0.932835578918457,
				1
			],
			"translation":[
				0,
				5.170704364776611,
				0.09223227947950363
			]
		},
		{
			"mesh":9,
			"name":"Cylinder.007",
			"scale":[
				1.1773682832717896,
				0.0172774288803339,
				1.1773682832717896
			],
			"translation":[
				0,
				6.212009906768799,
				0
			]
		},
		{
			"mesh":10,
			"name":"Cylinder.008",
			"scale":[
				0.3764408528804779,
				0.15534666180610657,
				0.3764408528804779
			],
			"translation":[
				0,
				6.503903388977051,
				0
			]
		},
		{
			"mesh":11,
			"name":"Plane",
			"rotation":[
				0.5,
				0.5,
				-0.4999999403953552,
				0.5000000596046448
			],
			"scale":[
				0.3481944799423218,
				0.3481944799423218,
				0.21483543515205383
			],
			"translation":[
				0,
				6.535168170928955,
				-0.355164110660553
			]
		},
		{
			"name":"Circle"
		},
		{
			"mesh":12,
			"name":"Cube",
			"translation":[
				-3.8452513217926025,
				5.670463562011719,
				0.4228471517562866
			]
		},
		{
			"mesh":13,
			"name":"Circle.001",
			"translation":[
				5.46447229385376,
				4.282606601715088,
				0.012506425380706787
			]
		}
	],
	"materials":[
		{
			"doubleSided":true,
			"name":"Material.001",
			"pbrMetallicRoughness":{
				"baseColorFactor":[
					0.03326788544654846,
					0.0049365125596523285,
					0.004285732284188271,
					1
				],
				"metallicFactor":0,
				"roughnessFactor":0.20353983342647552
			}
		},
		{
			"doubleSided":true,
			"name":"Material.005",
			"pbrMetallicRoughness":{
				"baseColorFactor":[
					0.1510511338710785,
					0.09436565637588501,
					0.050254710018634796,
					1
				],
				"metallicFactor":0,
				"roughnessFactor":0.2290748655796051
			}
		},
		{
			"doubleSided":true,
			"name":"Material.002",
			"pbrMetallicRoughness":{
				"baseColorFactor":[
					0.8001105785369873,
					0.592197835445404,
					0.3609843850135803,
					1
				],
				"metallicFactor":0,
				"roughnessFactor":0.5
			}
		},
		{
			"doubleSided":true,
			"name":"Material.003",
			"pbrMetallicRoughness":{
				"baseColorFactor":[
					0.14696621894836426,
					0.14696621894836426,
					0.14696621894836426,
					1
				],
				"metallicFactor":0,
				"roughnessFactor":0.5
			}
		},
		{
			"doubleSided":true,
			"name":"Material.004",
			"pbrMetallicRoughness":{
				"baseColorFactor":[
					0.25657013058662415,
					0.25657013058662415,
					0.25657013058662415,
					1
				],
				"metallicFactor":0.8458154201507568,
				"roughnessFactor":0.33039647340774536
			}
		}
	],
	"meshes":[
		{
			"name":"Sphere",
			"primitives":[
				{
					"attributes":{
						"POSITION":0,
						"NORMAL":1,
						"TEXCOORD_0":2
					},
					"indices":3,
					"material":0
				},
				{
					"attributes":{
						"POSITION":4,
						"NORMAL":5,
						"TEXCOORD_0":6
					},
					"indices":7,
					"material":1
				}
			]
		},
		{
			"name":"Cylinder",
			"primitives":[
				{
					"attributes":{
						"POSITION":8,
						"NORMAL":9,
						"TEXCOORD_0":10
					},
					"indices":11,
					"material":0
				}
			]
		},
		{
			"name":"Plane.002",
			"primitives":[
				{
					"attributes":{
						"POSITION":12,
						"NORMAL":13,
						"TEXCOORD_0":14
					},
					"indices":15,
					"material":2
				}
			]
		},
		{
			"name":"Cylinder.001",
			"primitives":[
				{
					"attributes":{
						"POSITION":16,
						"NORMAL":17,
						"TEXCOORD_0":18
					},
					"indices":11,
					"material":0
				}
			]
		},
		{
			"name":"Cylinder.002",
			"primitives":[
				{
					"attributes":{
						"POSITION":19,
						"NORMAL":20,
						"TEXCOORD_0":21
					},
					"indices":22,
					"material":0
				}
			]
		},
		{
			"name":"Cylinder.007",
			"primitives":[
				{
					"attributes":{
						"POSITION":23,
						"NORMAL":24,
						"TEXCOORD_0":25
					},
					"indices":11,
					"material":0
				}
			]
		},
		{
			"name":"Cylinder.008",
			"primitives":[
				{
					"attributes":{
						"POSITION":26,
						"NORMAL":27,
						"TEXCOORD_0":28
					},
					"indices":11,
					"material":0
				}
			]
		},
		{
			"name":"Cylinder.009",
			"primitives":[
				{
					"attributes":{
						"POSITION":29,
						"NORMAL":30,
						"TEXCOORD_0":31
					},
					"indices":11,
					"material":0
				}
			]
		},
		{
			"name":"Plane.003",
			"primitives":[
				{
					"attributes":{
						"POSITION":32,
						"NORMAL":33,
						"TEXCOORD_0":34
					},
					"indices":15,
					"material":2
				}
			]
		},
		{
			"name":"Cylinder.010",
			"primitives":[
				{
					"attributes":{
						"POSITION":35,
						"NORMAL":36,
						"TEXCOORD_0":37
					},
					"indices":11,
					"material":0
				}
			]
		},
		{
			"name":"Cylinder.011",
			"primitives":[
				{
					"attributes":{
						"POSITION":38,
						"NORMAL":39,
						"TEXCOORD_0":40
					},
					"indices":11,
					"material":0
				}
			]
		},
		{
			"name":"Plane.004",
			"primitives":[
				{
					"attributes":{
						"POSITION":41,
						"NORMAL":42,
						"TEXCOORD_0":43
					},
					"indices":44
				}
			]
		},
		{
			"name":"Cube.002",
			"primitives":[
				{
					"attributes":{
						"POSITION":45,
						"NORMAL":46,
						"TEXCOORD_0":47
					},
					"indices":48,
					"material":3
				}
			]
		},
		{
			"name":"Circle.001",
			"primitives":[
				{
					"attributes":{
						"POSITION":49,
						"NORMAL":50,
						"TEXCOORD_0":51
					},
					"indices":52,
					"material":4
				}
			]
		}
	],
	"accessors":[
		{
			"bufferView":0,
			"componentType":5126,
			"count":695,
			"max":[
				1.0633249282836914,
				0.8398385643959045,
				2.6517484188079834
			],
			"min":[
				-1.0633249282836914,
				-0.7654876708984375,
				-2.6938652992248535
			],
			"type":"VEC3"
		},
		{
			"bufferView":1,
			"componentType":5126,
			"count":695,
			"type":"VEC3"
		},
		{
			"bufferView":2,
			"componentType":5126,
			"count":695,
			"type":"VEC2"
		},
		{
			"bufferView":3,
			"componentType":5123,
			"count":3456,
			"type":"SCALAR"
		},
		{
			"bufferView":4,
			"componentType":5126,
			"count":44,
			"max":[
				0.9985207319259644,
				0.25058281421661377,
				2.1358323097229004
			],
			"min":[
				-0.9985207319259644,
				-0.32810336351394653,
				-2.4236550331115723
			],
			"type":"VEC3"
		},
		{
			"bufferView":5,
			"componentType":5126,
			"count":44,
			"type":"VEC3"
		},
		{
			"bufferView":6,
			"componentType":5126,
			"count":44,
			"type":"VEC2"
		},
		{
			"bufferView":7,
			"componentType":5123,
			"count":102,
			"type":"SCALAR"
		},
		{
			"bufferView":8,
			"componentType":5126,
			"count":192,
			"max":[
				0.062274202704429626,
				1.798079252243042,
				0.062274202704429626
			],
			"min":[
				-0.062274202704429626,
				-1.798079252243042,
				-0.062274202704429626
			],
			"type":"VEC3"
		},
		{
			"bufferView":9,
			"componentType":5126,
			"count":192,
			"type":"VEC3"
		},
		{
			"bufferView":10,
			"componentType":5126,
			"count":192,
			"type":"VEC2"
		},
		{
			"bufferView":11,
			"componentType":5123,
			"count":372,
			"type":"SCALAR"
		},
		{
			"bufferView":12,
			"componentType":5126,
			"count":578,
			"max":[
				1.3420137166976929,
				0.9333996176719666,
				0.45955055952072144
			],
			"min":[
				-1.3565300703048706,
				-0.5659437775611877,
				-0.011727554723620415
			],
			"type":"VEC3"
		},
		{
			"bufferView":13,
			"componentType":5126,
			"count":578,
			"type":"VEC3"
		},
		{
			"bufferView":14,
			"componentType":5126,
			"count":578,
			"type":"VEC2"
		},
		{
			"bufferView":15,
			"componentType":5123,
			"count":3456,
			"type":"SCALAR"
		},
		{
			"bufferView":16,
			"componentType":5126,
			"count":192,
			"max":[
				0.062274202704429626,
				1.798079252243042,
				0.062274202704429626
			],
			"min":[
				-0.062274202704429626,
				-1.798079252243042,
				-0.062274202704429626
			],
			"type":"VEC3"
		},
		{
			"bufferView":17,
			"componentType":5126,
			"count":192,
			"type":"VEC3"
		},
		{
			"bufferView":18,
			"componentType":5126,
			"count":192,
			"type":"VEC2"
		},
		{
			"bufferView":19,
			"componentType":5126,
			"count":1146,
			"max":[
				0.29592424631118774,
				0.15404485166072845,
				0.29592424631118774
			],
			"min":[
				-0.29592424631118774,
				-0.15436241030693054,
				-0.29592424631118774
			],
			"type":"VEC3"
		},
		{
			"bufferView":20,
			"componentType":5126,
			"count":1146,
			"type":"VEC3"
		},
		{
			"bufferView":21,
			"componentType":5126,
			"count":1146,
			"type":"VEC2"
		},
		{
			"bufferView":22,
			"componentType":5123,
			"count":2154,
			"type":"SCALAR"
		},
		{
			"bufferView":23,
			"componentType":5126,
			"count":192,
			"max":[
				0.062274202704429626,
				1.798079252243042,
				0.062274202704429626
			],
			"min":[
				-0.062274202704429626,
				-1.798079252243042,
				-0.062274202704429626
			],
			"type":"VEC3"
		},
		{
			"bufferView":24,
			"componentType":5126,
			"count":192,
			"type":"VEC3"
		},
		{
			"bufferView":25,
			"componentType":5126,
			"count":192,
			"type":"VEC2"
		},
		{
			"bufferView":26,
			"componentType":5126,
			"count":192,
			"max":[
				0.062274202704429626,
				1.798079252243042,
				0.062274202704429626
			],
			"min":[
				-0.062274202704429626,
				-1.798079252243042,
				-0.062274202704429626
			],
			"type":"VEC3"
		},
		{
			"bufferView":27,
			"componentType":5126,
			"count":192,
			"type":"VEC3"
		},
		{
			"bufferView":28,
			"componentType":5126,
			"count":192,
			"type":"VEC2"
		},
		{
			"bufferView":29,
			"componentType":5126,
			"count":192,
			"max":[
				0.062274202704429626,
				1.798079252243042,
				0.062274202704429626
			],
			"min":[
				-0.062274202704429626,
				-1.798079252243042,
				-0.062274202704429626
			],
			"type":"VEC3"
		},
		{
			"bufferView":30,
			"componentType":5126,
			"count":192,
			"type":"VEC3"
		},
		{
			"bufferView":31,
			"componentType":5126,
			"count":192,
			"type":"VEC2"
		},
		{
			"bufferView":32,
			"componentType":5126,
			"count":578,
			"max":[
				1.354295015335083,
				0.9333990812301636,
				0.34485453367233276
			],
			"min":[
				-1.3455826044082642,
				-0.5687792301177979,
				-0.00983327068388462
			],
			"type":"VEC3"
		},
		{
			"bufferView":33,
			"componentType":5126,
			"count":578,
			"type":"VEC3"
		},
		{
			"bufferView":34,
			"componentType":5126,
			"count":578,
			"type":"VEC2"
		},
		{
			"bufferView":35,
			"componentType":5126,
			"count":192,
			"max":[
				0.062274202704429626,
				1.798079252243042,
				0.062274202704429626
			],
			"min":[
				-0.062274202704429626,
				-1.798079252243042,
				-0.062274202704429626
			],
			"type":"VEC3"
		},
		{
			"bufferView":36,
			"componentType":5126,
			"count":192,
			"type":"VEC3"
		},
		{
			"bufferView":37,
			"componentType":5126,
			"count":192,
			"type":"VEC2"
		},
		{
			"bufferView":38,
			"componentType":5126,
			"count":192,
			"max":[
				0.062274202704429626,
				1.798079252243042,
				0.062274202704429626
			],
			"min":[
				-0.062274202704429626,
				-1.798079252243042,
				-0.062274202704429626
			],
			"type":"VEC3"
		},
		{
			"bufferView":39,
			"componentType":5126,
			"count":192,
			"type":"VEC3"
		},
		{
			"bufferView":40,
			"componentType":5126,
			"count":192,
			"type":"VEC2"
		},
		{
			"bufferView":41,
			"componentType":5126,
			"count":24,
			"max":[
				1,
				0,
				1
			],
			"min":[
				-1,
				-0.009999999776482582,
				-1
			],
			"type":"VEC3"
		},
		{
			"bufferView":42,
			"componentType":5126,
			"count":24,
			"type":"VEC3"
		},
		{
			"bufferView":43,
			"componentType":5126,
			"count":24,
			"type":"VEC2"
		},
		{
			"bufferView":44,
			"componentType":5123,
			"count":36,
			"type":"SCALAR"
		},
		{
			"bufferView":45,
			"componentType":5126,
			"count":1649,
			"max":[
				1.26317298412323,
				1.14938485622406,
				1.6596882343292236
			],
			"min":[
				-2.1361284255981445,
				-1.1342638731002808,
				-1.4612566232681274
			],
			"type":"VEC3"
		},
		{
			"bufferView":46,
			"componentType":5126,
			"count":1649,
			"type":"VEC3"
		},
		{
			"bufferView":47,
			"componentType":5126,
			"count":1649,
			"type":"VEC2"
		},
		{
			"bufferView":48,
			"componentType":5123,
			"count":9216,
			"type":"SCALAR"
		},
		{
			"bufferView":49,
			"componentType":5126,
			"count":1126,
			"max":[
				1.1963109970092773,
				1.2006587982177734,
				5.0295853725401685e-05
			],
			"min":[
				-1.1963109970092773,
				-1,
				-0.07249044626951218
			],
			"type":"VEC3"
		},
		{
			"bufferView":50,
			"componentType":5126,
			"count":1126,
			"type":"VEC3"
		},
		{
			"bufferView":51,
			"componentType":5126,
			"count":1126,
			"type":"VEC2"
		},
		{
			"bufferView":52,
			"componentType":5123,
			"count":6900,
			"type":"SCALAR"
		}
	],
	"bufferViews":[
		{
			"buffer":0,
			"byteLength":8340,
			"byteOffset":0,
			"target":34962
		},
		{
			"buffer":0,
			"byteLength":8340,
			"byteOffset":8340,
			"target":34962
		},
		{
			"buffer":0,
			"byteLength":5560,
			"byteOffset":16680,
			"target":34962
		},
		{
			"buffer":0,
			"byteLength":6912,
			"byteOffset":22240,
			"target":34963
		},
		{
			"buffer":0,
			"byteLength":528,
			"byteOffset":29152,
			"target":34962
		},
		{
			"buffer":0,
			"byteLength":528,
			"byteOffset":29680,
			"target":34962
		},
		{
			"buffer":0,
			"byteLength":352,
			"byteOffset":30208,
			"target":34962
		},
		{
			"buffer":0,
			"byteLength":204,
			"byteOffset":30560,
			"target":34963
		},
		{
			"buffer":0,
			"byteLength":2304,
			"byteOffset":30764,
			"target":34962
		},
		{
			"buffer":0,
			"byteLength":2304,
			"byteOffset":33068,
			"target":34962
		},
		{
			"buffer":0,
			"byteLength":1536,
			"byteOffset":35372,
			"target":34962
		},
		{
			"buffer":0,
			"byteLength":744,
			"byteOffset":36908,
			"target":34963
		},
		{
			"buffer":0,
			"byteLength":6936,
			"byteOffset":37652,
			"target":34962
		},
		{
			"buffer":0,
			"byteLength":6936,
			"byteOffset":44588,
			"target":34962
		},
		{
			"buffer":0,
			"byteLength":4624,
			"byteOffset":51524,
			"target":34962
		},
		{
			"buffer":0,
			"byteLength":6912,
			"byteOffset":56148,
			"target":34963
		},
		{
			"buffer":0,
			"byteLength":2304,
			"byteOffset":63060,
			"target":34962
		},
		{
			"buffer":0,
			"byteLength":2304,
			"byteOffset":65364,
			"target":34962
		},
		{
			"buffer":0,
			"byteLength":1536,
			"byteOffset":67668,
			"target":34962
		},
		{
			"buffer":0,
			"byteLength":13752,
			"byteOffset":69204,
			"target":34962
		},
		{
			"buffer":0,
			"byteLength":13752,
			"byteOffset":82956,
			"target":34962
		},
		{
			"buffer":0,
			"byteLength":9168,
			"byteOffset":96708,
			"target":34962
		},
		{
			"buffer":0,
			"byteLength":4308,
			"byteOffset":105876,
			"target":34963
		},
		{
			"buffer":0,
			"byteLength":2304,
			"byteOffset":110184,
			"target":34962
		},
		{
			"buffer":0,
			"byteLength":2304,
			"byteOffset":112488,
			"target":34962
		},
		{
			"buffer":0,
			"byteLength":1536,
			"byteOffset":114792,
			"target":34962
		},
		{
			"buffer":0,
			"byteLength":2304,
			"byteOffset":116328,
			"target":34962
		},
		{
			"buffer":0,
			"byteLength":2304,
			"byteOffset":118632,
			"target":34962
		},
		{
			"buffer":0,
			"byteLength":1536,
			"byteOffset":120936,
			"target":34962
		},
		{
			"buffer":0,
			"byteLength":2304,
			"byteOffset":122472,
			"target":34962
		},
		{
			"buffer":0,
			"byteLength":2304,
			"byteOffset":124776,
			"target":34962
		},
		{
			"buffer":0,
			"byteLength":1536,
			"byteOffset":127080,
			"target":34962
		},
		{
			"buffer":0,
			"byteLength":6936,
			"byteOffset":128616,
			"target":34962
		},
		{
			"buffer":0,
			"byteLength":6936,
			"byteOffset":135552,
			"target":34962
		},
		{
			"buffer":0,
			"byteLength":4624,
			"byteOffset":142488,
			"target":34962
		},
		{
			"buffer":0,
			"byteLength":2304,
			"byteOffset":147112,
			"target":34962
		},
		{
			"buffer":0,
			"byteLength":2304,
			"byteOffset":149416,
			"target":34962
		},
		{
			"buffer":0,
			"byteLength":1536,
			"byteOffset":151720,
			"target":34962
		},
		{
			"buffer":0,
			"byteLength":2304,
			"byteOffset":153256,
			"target":34962
		},
		{
			"buffer":0,
			"byteLength":2304,
			"byteOffset":155560,
			"target":34962
		},
		{
			"buffer":0,
			"byteLength":1536,
			"byteOffset":157864,
			"target":34962
		},
		{
			"buffer":0,
			"byteLength":288,
			"byteOffset":159400,
			"target":34962
		},
		{
			"buffer":0,
			"byteLength":288,
			"byteOffset":159688,
			"target":34962
		},
		{
			"buffer":0,
			"byteLength":192,
			"byteOffset":159976,
			"target":34962
		},
		{
			"buffer":0,
			"byteLength":72,
			"byteOffset":160168,
			"target":34963
		},
		{
			"buffer":0,
			"byteLength":19788,
			"byteOffset":160240,
			"target":34962
		},
		{
			"buffer":0,
			"byteLength":19788,
			"byteOffset":180028,
			"target":34962
		},
		{
			"buffer":0,
			"byteLength":13192,
			"byteOffset":199816,
			"target":34962
		},
		{
			"buffer":0,
			"byteLength":18432,
			"byteOffset":213008,
			"target":34963
		},
		{
			"buffer":0,
			"byteLength":13512,
			"byteOffset":231440,
			"target":34962
		},
		{
			"buffer":0,
			"byteLength":13512,
			"byteOffset":244952,
			"target":34962
		},
		{
			"buffer":0,
			"byteLength":9008,
			"byteOffset":258464,
			"target":34962
		},
		{
			"buffer":0,
			"byteLength":13800,
			"byteOffset":267472,
			"target":34963
		}
	],
	"buffers":[
		{
			"byteLength":281272,
			"uri":"Boat.bin"
		}
	]
}
